PathFileType	4	(X/Y/Z)	C:/Users/dbak576/Desktop/Duncan Bakke Modelling Files/H25s1/Static_H25s1.trc	
DataRate	CameraRate	NumFrames	NumMarkers	Units	OrigDataRate	OrigDataStartFrame	OrigNumFrames	
200.00	200.00	4	62	mm	200.00	1	296	
Frame#	Time	LFHD			RFHD			LBHD			RBHD			C7			T10			CLAV			STRN			RBack			LASI			RASI			LPSI			RPSI			RACR1			RUA1			RElbow			RElbowM			RFA1			RWRR			RWRU			RCAR			LACR1			LUA1			LElbow			LElbowM			LFA1			LWRR			LWRU			LCAR			RTH1			RTH3			RTH2			RTH4			RLFC			RMFC			RTB1			RTB3			RTB2			RTB4			RLMAL			RMMAL			RCAL			RMT1			RMT5			RToe			LTH1			LTH3			LTH2			LTH4			LLFC			LMFC			LTB1			LTB3			LTB2			LTB4			LLMAL			LMMAL			LCAL			LMT1			LMT5			LToe			*61			
		X1	Y1	Z1	X2	Y2	Z2	X3	Y3	Z3	X4	Y4	Z4	X5	Y5	Z5	X6	Y6	Z6	X7	Y7	Z7	X8	Y8	Z8	X9	Y9	Z9	X10	Y10	Z10	X11	Y11	Z11	X12	Y12	Z12	X13	Y13	Z13	X14	Y14	Z14	X15	Y15	Z15	X16	Y16	Z16	X17	Y17	Z17	X18	Y18	Z18	X19	Y19	Z19	X20	Y20	Z20	X21	Y21	Z21	X22	Y22	Z22	X23	Y23	Z23	X24	Y24	Z24	X25	Y25	Z25	X26	Y26	Z26	X27	Y27	Z27	X28	Y28	Z28	X29	Y29	Z29	X30	Y30	Z30	X31	Y31	Z31	X32	Y32	Z32	X33	Y33	Z33	X34	Y34	Z34	X35	Y35	Z35	X36	Y36	Z36	X37	Y37	Z37	X38	Y38	Z38	X39	Y39	Z39	X40	Y40	Z40	X41	Y41	Z41	X42	Y42	Z42	X43	Y43	Z43	X44	Y44	Z44	X45	Y45	Z45	X46	Y46	Z46	X47	Y47	Z47	X48	Y48	Z48	X49	Y49	Z49	X50	Y50	Z50	X51	Y51	Z51	X52	Y52	Z52	X53	Y53	Z53	X54	Y54	Z54	X55	Y55	Z55	X56	Y56	Z56	X57	Y57	Z57	X58	Y58	Z58	X59	Y59	Z59	X60	Y60	Z60	X61	Y61	Z61	X62	Y62	Z62	

1	0.000	-66.10507	-262.93198	1729.56750	38.97822	-269.38330	1724.16138	-96.06054	-430.28934	1723.80103	45.67406	-441.50455	1720.60205	-24.19391	-512.88800	1572.20386	-31.53351	-511.12985	1210.32166	-37.49753	-333.35846	1504.69763	-16.39787	-248.61407	1340.12268	84.03051	-578.39716	1471.60437	-174.64073	-293.99753	1048.58667	144.30997	-323.09946	1050.70117	-87.61817	-522.73700	1096.98743	21.37397	-530.13715	1085.85571	131.27800	-430.32053	1570.09729	281.56650	-423.05862	1520.98401	429.13684	-393.27896	1457.71924	399.97095	-319.12668	1411.57092	563.39380	-337.53488	1503.63916	684.65118	-261.55283	1514.79565	696.31409	-282.70505	1432.30823	746.10895	-278.94910	1479.25269	-188.03891	-438.42902	1558.17310	-336.04315	-424.22009	1520.96655	-492.38412	-387.41779	1472.25085	-467.83481	-325.34018	1411.98767	-626.15216	-330.91699	1511.55957	-735.97101	-254.62315	1516.54443	-742.23724	-295.17786	1433.96643	-793.02014	-282.52737	1491.08215	192.22849	-459.55463	834.59497	196.71323	-462.98404	662.18433	209.01315	-403.67770	747.09998	194.42819	-463.05154	746.03400	200.70923	-466.22552	523.52362	51.75211	-462.96649	502.06152	133.62527	-422.18256	367.37814	138.38588	-451.29941	196.73347	197.55258	-440.83582	284.87518	135.44756	-437.08130	281.65036	187.95486	-516.00220	80.66755	96.37845	-482.84708	99.44366	150.12939	-575.96375	43.96671	135.93330	-354.31918	52.04705	231.12027	-397.04648	32.65509	149.34920	-300.81583	33.67228	-243.86874	-391.15228	833.56952	-224.46906	-410.51410	660.95648	-219.42857	-343.94324	742.19067	-238.60391	-400.32733	748.09180	-209.37944	-457.77185	516.60437	-67.23402	-451.28104	504.89951	-115.48652	-430.30151	361.62891	-120.85862	-452.29257	191.75508	-177.76099	-425.46326	275.87567	-117.10683	-444.01080	277.20197	-186.21259	-504.65240	72.92709	-87.27607	-481.53516	91.18761	-149.65472	-569.73486	45.15087	-133.47874	-342.09424	45.03014	-224.30762	-390.13315	28.94065	-153.54898	-285.32193	27.07646	-222.57663	-460.99356	917.40265 
2	0.005	-66.08289	-262.97910	1729.57324	39.01695	-269.41245	1724.15955	-95.92947	-430.36496	1723.78638	45.72091	-441.52094	1720.58191	-24.14041	-512.94031	1572.19617	-31.54699	-511.21289	1210.34412	-37.44588	-333.40753	1504.71082	-16.42699	-248.66238	1340.12549	84.09274	-578.48303	1471.60571	-174.68076	-294.05606	1048.60645	144.26962	-323.11566	1050.69055	-87.66946	-522.77161	1096.97485	21.36247	-530.14337	1085.83215	131.29578	-430.34802	1570.07361	281.39642	-423.23264	1520.93420	429.14862	-393.30670	1457.64282	400.00314	-319.14267	1411.55054	563.29431	-337.53110	1503.48206	684.71973	-261.56863	1514.77893	696.31409	-282.70505	1432.30823	746.15881	-278.99304	1479.20276	-187.95418	-438.56900	1558.14624	-335.97867	-424.11145	1521.05994	-492.37256	-387.49774	1472.28467	-467.86853	-325.46570	1411.97668	-626.15936	-331.15207	1511.45251	-735.98346	-254.69472	1516.56934	-742.45355	-295.42621	1434.15698	-792.99426	-282.61508	1491.01099	192.23177	-459.55191	834.61487	196.75339	-463.01376	662.16437	209.01315	-403.67770	747.09998	194.76462	-463.16077	746.21399	200.75639	-466.21204	523.52795	51.78965	-462.98871	502.06671	133.62527	-422.18256	367.37814	138.37425	-451.28543	196.73219	197.51210	-440.81439	284.85770	135.46101	-437.06967	281.62427	187.96568	-515.94092	80.66271	96.40257	-482.85806	99.43653	150.14993	-575.97876	43.93790	135.95894	-354.32471	52.02250	231.12111	-397.05453	32.67146	149.34401	-300.80585	33.66626	-243.89897	-391.19870	833.58063	-224.48874	-410.53033	660.96912	-219.46986	-344.00745	742.21381	-238.58308	-400.33545	748.05408	-209.40282	-457.82245	516.62701	-67.27995	-451.29633	504.87228	-115.18086	-430.31635	361.60056	-120.83368	-452.31604	191.83086	-177.75749	-425.43564	275.86334	-117.09326	-444.00775	277.21039	-186.20630	-504.63748	72.95052	-87.29330	-481.49503	91.18283	-149.63554	-569.63452	45.01244	-133.58366	-342.13663	45.01678	-224.42307	-390.14334	28.93097	-153.61584	-285.34103	27.07671	-222.62285	-461.11664	917.42554 
3	0.010	-66.08076	-263.01944	1729.54919	39.13475	-269.48724	1724.15430	-95.94612	-430.45615	1723.81189	45.77277	-441.54691	1720.58997	-24.10297	-513.01770	1572.18970	-31.49909	-511.28226	1210.32300	-37.43483	-333.47293	1504.71228	-16.42134	-248.69583	1340.06641	84.05822	-578.47211	1471.41956	-174.65887	-294.14069	1048.62634	144.29848	-323.14182	1050.70044	-87.61010	-522.84210	1096.97571	21.35875	-530.21692	1085.83362	131.30991	-430.39938	1570.03052	281.42923	-423.33823	1520.91370	429.16290	-393.37537	1457.61658	400.01401	-319.20093	1411.51868	563.44629	-337.67438	1503.58032	684.71033	-261.61862	1514.73718	696.30994	-282.70392	1432.29309	746.20911	-279.01035	1479.15039	-187.95389	-438.66367	1558.16895	-335.93521	-424.14038	1521.09790	-492.41757	-387.58774	1472.33972	-467.79419	-325.54599	1411.99829	-626.10583	-331.07071	1511.59656	-735.97021	-254.73373	1516.57935	-742.30927	-295.42151	1434.13818	-792.98804	-282.74890	1491.13806	192.22922	-459.55438	834.59631	196.76009	-463.01218	662.18951	209.01894	-403.73065	747.12317	194.79971	-463.16772	746.22791	200.73152	-466.24530	523.54169	51.76997	-462.99832	502.06808	133.59787	-422.23187	367.37265	138.35518	-451.29779	196.73941	197.51662	-440.80536	284.85651	135.45486	-437.07712	281.62674	187.94583	-515.91962	80.65699	96.41061	-482.86902	99.42001	150.10118	-575.94104	43.96406	135.95781	-354.32199	52.02799	231.13132	-397.04544	32.64846	149.33658	-300.80594	33.66813	-243.92542	-391.29620	833.56818	-224.51521	-410.53668	660.97620	-219.49271	-344.01093	742.22528	-238.59706	-400.37650	748.05725	-209.38428	-457.81699	516.62463	-67.31062	-451.27826	504.94769	-115.09814	-430.34396	361.63977	-120.88898	-452.27628	191.75159	-177.74214	-425.46231	275.88837	-117.09807	-443.95187	277.19766	-186.23346	-504.67755	72.86604	-87.29272	-481.48843	91.19923	-149.59901	-569.55872	44.95609	-133.58220	-342.10638	45.02444	-224.30322	-390.10730	28.93224	-153.63980	-285.32715	27.08518	-222.65051	-461.16400	917.43817 
4	0.015	-65.98626	-263.04456	1729.52429	39.14811	-269.55698	1724.14893	-95.89355	-430.52695	1723.81042	45.89294	-441.61688	1720.64685	-24.03718	-513.07458	1572.17053	-31.48853	-511.34091	1210.34363	-37.42438	-333.56421	1504.73145	-16.39541	-248.75313	1340.05920	84.10809	-578.53845	1471.40039	-174.65651	-294.19409	1048.66956	144.34666	-323.19833	1050.71948	-87.62043	-522.89972	1096.96692	21.37900	-530.26410	1085.83350	131.33311	-430.44946	1570.03723	281.49683	-423.38559	1520.89453	429.16647	-393.41260	1457.62085	400.01816	-319.24612	1411.47009	563.48547	-337.67526	1503.54468	684.66693	-261.62552	1514.70288	696.31342	-282.70065	1432.25085	746.18585	-279.03336	1479.13806	-187.84648	-438.68817	1558.16235	-335.90042	-424.22266	1521.08472	-492.37769	-387.70087	1472.35754	-467.84286	-325.57947	1411.97595	-626.07037	-331.16779	1511.62256	-735.94257	-254.79779	1516.57593	-742.24628	-295.51511	1434.12524	-792.97437	-282.88220	1491.14673	192.23274	-459.55127	834.61707	196.72173	-462.99277	662.16254	209.02153	-403.73715	747.12573	194.77180	-463.27057	746.24561	200.71199	-466.25616	523.51178	51.75364	-463.01132	502.06760	133.58809	-422.25055	367.39270	138.38161	-451.30154	196.73680	197.68936	-440.85043	284.99377	135.45332	-437.07712	281.62750	187.97678	-515.90912	80.66223	96.40285	-482.86316	99.43813	150.15271	-575.95776	43.97500	135.96812	-354.27985	52.03041	231.12218	-397.02716	32.66034	149.33110	-300.80267	33.67305	-243.93678	-391.33847	833.57092	-224.50412	-410.60522	660.96143	-219.49374	-344.00818	742.22601	-238.61679	-400.39093	748.08014	-209.40613	-457.81860	516.61615	-67.28011	-451.34113	504.93967	-115.15317	-430.32886	361.59900	-120.90448	-452.25436	191.72275	-177.73834	-425.46146	275.84613	-117.11170	-443.99557	277.18164	-186.23257	-504.62656	72.94508	-87.30457	-481.49722	91.20116	-149.63715	-569.70074	45.08830	-133.59799	-342.10703	45.02264	-224.40399	-390.14963	28.95726	-153.61809	-285.33508	27.07755	-222.64784	-461.15662	917.43689 
